# xmcd CD database file
# Copyright (C) 1995-1998 Ti Kan
#
# Track frame offsets:
#	150
#	17390
#	31406
#	47969
#	63270
#	72049
#	107622
#	122433
#	125040
#	140010
#	151426
#	164066
#	175106
#	188771
#	212522
#	226916
#	244591
#	269551
#	285455
#
# Disc length: 4047 seconds
#
# Revision: 1
# Processed by: cddbd v1.4b41PL3 Copyright (c) Steve Scherf et al.
# Submitted via: CDex 1.30
#
DISCID=0b0fcd13
DTITLE=Diversos - Coletânea "The Blues Brothers"
DYEAR=2001
DGENRE=Blues
TTITLE0=Peter Gunn
TTITLE1=Born in Chicago
TTITLE2=Hey Bartender
TTITLE3=Everybody Needs Somebody To Love
TTITLE4=Hit The Road Jack
TTITLE5=Sweet Home Chicago
TTITLE6=Think
TTITLE7=Harmonica Musing
TTITLE8=Cheapper To Keep Her
TTITLE9=Perry Mason Theme
TTITLE10=Looking For a Fox
TTITLE11=Can't Turn You Loose
TTITLE12=RESPECT
TTITLE13=Maybe I'm Wrong
TTITLE14=Ghost Riders In The Sky
TTITLE15=John The Revelator
TTITLE16=How Blue Can You Get
TTITLE17=Turn On Your Love Tonight
TTITLE18=New Orleans
EXTD=\nYEAR: 2001  ID3G:   0
EXTT0=
EXTT1=
EXTT2=
EXTT3=
EXTT4=
EXTT5=
EXTT6=
EXTT7=
EXTT8=
EXTT9=
EXTT10=
EXTT11=
EXTT12=
EXTT13=
EXTT14=
EXTT15=
EXTT16=
EXTT17=
EXTT18=
PLAYORDER=
